PathFileType	4	(X/Y/Z)	E:\Qualisys_Data\Carbon_Farble_Plate\Data\Amateur_Runner\S2\T3\S2T3V21_c3d.trc
DataRate	CameraRate	NumFrames	NumMarkers	Units	OrigDataRate	OrigDataStartFrame	OrigNumFrames
200.000000	200.000000	4	39	mm	200.000000	0	301
Frame#	Time	LSHO			RSHO			LICST			RICST			LASIS			LHEEL			RASIS			LTROC			RTROC			SACR			LTH1			LSK4			LTH2			LTH3			RHM5			LSK2			LTH4			RTH1			LTOE			RTH2			RTH3			RTH4			LLEP			RLEP			LSK1			LSK3			RSK1			LHM5			RSK2			LFT1			RSK3			RSK4			LLME			RLME			RTOE			RHEEL			RFT1			RFT2			LFT2			
		X1	Y1	Z1	X2	Y2	Z2	X3	Y3	Z3	X4	Y4	Z4	X5	Y5	Z5	X6	Y6	Z6	X7	Y7	Z7	X8	Y8	Z8	X9	Y9	Z9	X10	Y10	Z10	X11	Y11	Z11	X12	Y12	Z12	X13	Y13	Z13	X14	Y14	Z14	X15	Y15	Z15	X16	Y16	Z16	X17	Y17	Z17	X18	Y18	Z18	X19	Y19	Z19	X20	Y20	Z20	X21	Y21	Z21	X22	Y22	Z22	X23	Y23	Z23	X24	Y24	Z24	X25	Y25	Z25	X26	Y26	Z26	X27	Y27	Z27	X28	Y28	Z28	X29	Y29	Z29	X30	Y30	Z30	X31	Y31	Z31	X32	Y32	Z32	X33	Y33	Z33	X34	Y34	Z34	X35	Y35	Z35	X36	Y36	Z36	X37	Y37	Z37	X38	Y38	Z38	X39	Y39	Z39	

1	0	-2753.062255859375	1517.166015625	-474.9980773925781	-2805.68310546875	1497.5869140625	-173.9276428222656	-2813.950927734375	1055.134399414062	-475.8419799804688	-2816.286376953125	1046.347778320312	-179.7479400634766	-2768.577392578125	998.584716796875	-462.7820434570312	-3356.98779296875	409.7875061035156	-370.71337890625	-2759.515380859375	998.3213500976562	-208.9693298339844	-2919.42626953125	957.9972534179688	-481.7347412109375	-2890.20263671875	941.3811645507812	-166.3877563476562	-2912.68798828125	1095.487060546875	-332.9418640136719	-2893.083251953125	696.3180541992188	-480.6669311523438	-3228.4306640625	492.6624145507812	-453.8624877929688	-2968.49853515625	730.347412109375	-482.1694641113281	-2935.801513671875	603.7967529296875	-464.0437622070312	-2508.199951171875	155.0406799316406	-171.6360321044922	-3147.294921875	548.5775756835938	-470.2003479003906	-3011.314697265625	641.4115600585938	-458.7688598632812	-2679.959716796875	710.3441772460938	-168.6995086669922	-3344.282958984375	162.0838775634766	-404.6380004882812	-2753.65478515625	687.6527099609375	-166.2287139892578	-2649.964599609375	615.859130859375	-190.7975463867188	-2728.11474609375	595.3377685546875	-183.037109375	-3005.51416015625	584.57080078125	-464.8189392089844	-2689.72705078125	568.8600463867188	-182.8897552490234	-3103.384521484375	483.5921020507812	-472.2391052246094	-3186.54150390625	427.7530517578125	-463.134521484375	-2641.218994140625	452.1598510742188	-174.264404296875	-3384.657958984375	223.1052398681641	-449.2106628417969	-2722.050537109375	442.3345947265625	-166.65234375	-3374.836669921875	395.3821411132812	-335.7197875976562	-2630.3701171875	350.6878356933594	-182.3562774658203	-2709.82666015625	345.2164916992188	-178.8365173339844	-3348.793212890625	356.142333984375	-428.6144409179688	-2638.001708984375	158.1548004150391	-207.7776947021484	-2450.33447265625	196.0918426513672	-222.5643920898438	-2689.8955078125	120.2178573608398	-269.9781799316406	-2662.588623046875	102.7147064208984	-296.79638671875	-2680.34521484375	94.65200042724609	-249.2274322509766	-3391.645263671875	402.4789428710938	-386.2505798339844
2	0.005	-2732.893798828125	1516.10205078125	-473.6535949707031	-2786.7177734375	1495.8115234375	-173.0305328369141	-2795.04345703125	1054.80615234375	-475.8252258300781	-2796.9521484375	1044.81689453125	-180.4003601074219	-2748.724609375	997.6917724609376	-463.062744140625	-3339.89453125	418.0108642578125	-369.5364074707031	-2740.73828125	996.1731567382812	-209.4020538330078	-2899.785400390625	956.5453491210938	-482.4264221191406	-2872.02734375	939.0689697265624	-168.0609283447266	-2893.677001953125	1094.650512695312	-332.8290405273438	-2870.604248046875	694.5787353515625	-479.9068603515625	-3207.9072265625	496.6796264648438	-453.6002807617188	-2946.839111328125	728.2681884765625	-483.4864501953125	-2912.463623046875	601.2593994140625	-463.7158203125	-2482.56103515625	156.9988708496094	-172.9179077148438	-3125.35302734375	549.7870483398438	-469.8994140625	-2989.031494140625	638.6339111328125	-459.3961486816406	-2662.6533203125	705.6563720703125	-167.0994110107422	-3333.5673828125	169.6209411621094	-405.9634704589844	-2737.054931640625	683.60107421875	-164.7667541503906	-2635.521240234375	610.6784057617188	-190.5100860595703	-2713.546875	591.1784057617188	-183.3468017578125	-2983.239013671875	582.7571411132812	-465.4937133789062	-2672.86572265625	565.6448974609375	-182.7965698242188	-3083.4423828125	483.3222961425781	-472.3232727050781	-3168.2421875	429.9721069335938	-462.2757568359375	-2623.007080078125	451.1984252929688	-174.8662567138672	-3371.080810546875	232.6441345214844	-449.7305297851562	-2701.33154296875	439.533203125	-166.388671875	-3358.17822265625	403.4718017578125	-334.3671875	-2607.419677734375	350.5736694335938	-183.4632415771484	-2687.319580078125	341.9335632324219	-178.2391052246094	-3332.348876953125	364.7221374511719	-428.1689758300781	-2611.857177734375	157.1416931152344	-208.4401397705078	-2425.66748046875	199.9234924316406	-223.8727569580078	-2662.2939453125	117.1737365722656	-270.1098937988281	-2636.1259765625	101.2860717773438	-298.1587219238281	-2652.561767578125	92.158935546875	-250.3744201660156	-3374.300048828125	411.2938537597656	-385.0483703613281
3	0.01	-2712.747314453125	1514.502807617188	-472.87158203125	-2767.10888671875	1493.60791015625	-172.1372985839844	-2776.43115234375	1053.778564453125	-476.0397338867188	-2778.0732421875	1042.259399414062	-180.5457458496094	-2728.81591796875	996.8299560546876	-462.4076843261719	-3321.564697265625	425.9833374023438	-368.3530883789062	-2721.138916015625	995.0559692382812	-209.1069183349609	-2879.397705078125	954.12451171875	-482.3753967285156	-2853.4189453125	936.3411254882812	-168.0005950927734	-2875.19580078125	1093.222900390625	-333.0433044433594	-2848.6572265625	692.316162109375	-480.0514831542969	-3186.886474609375	499.7637329101562	-452.7223510742188	-2924.365234375	725.0848999023438	-483.2921142578125	-2890.0439453125	598.5145263671875	-464.8290710449219	-2457.879638671875	158.5328369140625	-174.5842437744141	-3102.937744140625	550.9542846679688	-470.2328491210938	-2965.75	634.613037109375	-458.8699951171875	-2646.26318359375	701.571044921875	-165.982666015625	-3321.20654296875	177.9183349609375	-405.3746337890625	-2720.3310546875	680.4099731445312	-163.2841491699219	-2619.515380859375	605.9487915039062	-189.4110870361328	-2696.46240234375	587.7914428710938	-182.5386505126953	-2959.91943359375	579.68701171875	-465.3962707519531	-2656.26611328125	562.6063232421875	-181.4547729492188	-3063.318359375	483.0640869140625	-472.2078552246094	-3149.59619140625	432.3773193359375	-462.4641723632812	-2602.94287109375	449.6268920898438	-175.6244354248047	-3355.655517578125	241.726806640625	-449.492919921875	-2680.997314453125	436.7359313964844	-165.8713836669922	-3340.4814453125	411.8247375488281	-334.6085510253906	-2586.040771484375	349.5382995605469	-184.1646118164062	-2665.539306640625	340.3916015625	-178.1463470458984	-3315.45654296875	372.4734191894531	-427.3243408203125	-2587.60400390625	156.3710479736328	-209.4361724853516	-2402.146240234375	202.5798645019531	-225.7176666259766	-2637.90869140625	115.4886703491211	-271.3897705078125	-2611.0068359375	99.94892120361328	-299.3150939941406	-2627.49072265625	89.55055236816406	-250.8578948974609	-3355.97412109375	420.136474609375	-384.22314453125
4	0.015	-2692.8505859375	1513.389404296875	-472.3887634277344	-2748.181640625	1491.654174804688	-171.5647125244141	-2757.396484375	1052.050537109375	-475.4329528808594	-2760.5087890625	1040.076538085938	-180.4421844482422	-2710.008056640625	995.9287719726562	-463.0870361328125	-3301.939208984375	433.1917419433594	-366.7771301269531	-2703.0439453125	992.864990234375	-208.125244140625	-2859.439208984375	951.8340454101562	-482.8094482421875	-2835.06103515625	934.2393798828124	-169.0653533935547	-2856.44970703125	1091.46630859375	-333.29541015625	-2826.19287109375	689.8447875976562	-480.3014831542969	-3165.0439453125	503.1692810058594	-452.3565368652344	-2902.96533203125	721.8130493164062	-483.7214660644531	-2867.392822265625	595.9454956054688	-465.5553588867188	-2435.022705078125	159.4044036865234	-176.4012145996094	-3079.198486328125	550.8790283203125	-469.976806640625	-2943.173095703125	631.31201171875	-459.5504455566406	-2627.83056640625	697.2355346679688	-163.3642120361328	-3308.322021484375	186.0591583251953	-406.0318603515625	-2703.26318359375	676.2327880859375	-162.1119232177734	-2602.473388671875	602.0482177734375	-188.1424713134766	-2681.44775390625	583.733642578125	-182.6649627685547	-2937.386474609375	576.7848510742188	-466.1613159179688	-2638.52099609375	559.2852172851562	-181.2264099121094	-3042.0751953125	481.6684265136719	-472.2329711914062	-3129.90283203125	434.0628051757812	-461.6563720703125	-2582.010986328125	448.3833312988281	-176.2656402587891	-3341.5244140625	250.5134582519531	-449.5668640136719	-2660.98193359375	434.9949340820312	-166.2055816650391	-3321.911376953125	419.7469177246094	-333.8263854980469	-2564.75048828125	348.076171875	-185.8504180908203	-2644.438720703125	338.0008544921875	-179.1070556640625	-3297.795166015625	380.351318359375	-426.3820190429688	-2564.24462890625	155.5159759521484	-209.2640991210938	-2379.96728515625	204.1853637695312	-227.7914733886719	-2615.06640625	110.6838455200195	-269.9402465820312	-2587.731201171875	98.42210388183594	-299.7352600097656	-2604.072509765625	88.99524688720703	-249.7517242431641	-3336.1708984375	428.5768737792969	-383.1521301269531
